<svg width="16" height="16" viewBox="0 0 16 16" fill="none" xmlns="http://www.w3.org/2000/svg">
<g clip-path="url(#clip0_177_1499)">
<path d="M5.81815 13.7164L0.909058 15.091L2.2836 10.1819L11.2727 1.23643C11.3743 1.13253 11.4957 1.04997 11.6295 0.993603C11.7635 0.937238 11.9074 0.908203 12.0527 0.908203C12.198 0.908203 12.3419 0.937238 12.4759 0.993603C12.6097 1.04997 12.7311 1.13253 12.8327 1.23643L14.7636 3.17825C14.8658 3.27966 14.947 3.40032 15.0024 3.53325C15.0578 3.66619 15.0863 3.80878 15.0863 3.95279C15.0863 4.0968 15.0578 4.2394 15.0024 4.37233C14.947 4.50527 14.8658 4.62593 14.7636 4.72734L5.81815 13.7164Z" stroke="#02986A" stroke-linecap="round" stroke-linejoin="round"/>
</g>
<defs>
<clipPath id="clip0_177_1499">
<rect width="15.2727" height="15.2727" fill="white" transform="translate(0.363647 0.36377)"/>
</clipPath>
</defs>
</svg>
