<svg width="16" height="16" viewBox="0 0 16 16" fill="none" xmlns="http://www.w3.org/2000/svg">
<g clip-path="url(#clip0_273_132)">
<path d="M14.7967 7.17778C14.9775 7.4033 15.0777 7.69628 15.0777 8.00007C15.0777 8.30385 14.9775 8.59684 14.7967 8.82235C13.6512 10.2092 11.0439 12.9092 8.00028 12.9092C4.95664 12.9092 2.34937 10.2092 1.20391 8.82235C1.023 8.59684 0.922852 8.30385 0.922852 8.00007C0.922852 7.69628 1.023 7.4033 1.20391 7.17778C2.34937 5.79094 4.95664 3.09091 8.00028 3.09091C11.0439 3.09091 13.6512 5.79094 14.7967 7.17778Z" stroke="#5AB1CB" stroke-linecap="round" stroke-linejoin="round"/>
<path d="M8.00018 10.1818C9.20516 10.1818 10.182 9.20499 10.182 8.00001C10.182 6.79502 9.20516 5.81819 8.00018 5.81819C6.79519 5.81819 5.81836 6.79502 5.81836 8.00001C5.81836 9.20499 6.79519 10.1818 8.00018 10.1818Z" stroke="#5AB1CB" stroke-linecap="round" stroke-linejoin="round"/>
</g>
<defs>
<clipPath id="clip0_273_132">
<rect width="15.2727" height="15.2727" fill="white" transform="translate(0.36377 0.363632)"/>
</clipPath>
</defs>
</svg>
